<svg id="Layer_1" enable-background="new 0 0 496.007 496.007" height="512" viewBox="0 0 496.007 496.007" width="512" xmlns="http://www.w3.org/2000/svg"><path d="m480.005 272.004h-41v-81c0-8.836-7.164-16-16-16h-63v-75c0-8.836-7.164-16-16-16h-54c-8.836 0-16 7.164-16 16v75h-54v-75c0-8.836-7.164-16-16-16h-54c-8.836 0-16 7.164-16 16v75h-61c-8.836 0-16 7.164-16 16v81h-41c-10.036 0-17.605 9.152-15.714 19.012 3.921 20.455 13.203 38.706 26.521 53.471l-6.664 49.376c-1.295 9.598 6.178 18.14 15.856 18.14h429c7.986 0 14.749-5.889 15.848-13.799l15-108c1.337-9.62-6.149-18.2-15.847-18.2zm-152-156v11h-22v-11zm-22 43h22v16h-22zm-118-43v11h-22v-11zm-22 43h22v16h-22zm-77 48h318v17h-19c-8.836 0-16 7.164-16 16s7.164 16 16 16h19v16h-318zm362.069 173h-396.765l5.255-38.94c.686-5.083-1.106-10.186-4.82-13.724-6.809-6.488-12.601-14.312-16.856-23.336h423.741zm-98.069-38c0 8.836-7.164 16-16 16h-198c-8.836 0-16-7.164-16-16s7.164-16 16-16h198c8.836 0 16 7.163 16 16zm59 0c0 8.836-7.164 16-16 16h-12c-8.836 0-16-7.164-16-16s7.164-16 16-16h12c8.836 0 16 7.163 16 16zm-78.87-86.31c-8.374 1.612-16.848-3.411-18.82-12.56-1.62-8.418 3.451-16.857 12.56-18.82 8.3-1.598 16.837 3.35 18.82 12.56 1.624 8.429-3.468 16.86-12.56 18.82zm-50 0c-8.42 1.621-16.857-3.454-18.82-12.56-1.617-8.398 3.43-16.852 12.56-18.82 8.384-1.614 16.853 3.422 18.82 12.56 1.617 8.396-3.435 16.853-12.56 18.82zm-50 0c-8.374 1.612-16.848-3.411-18.82-12.56-1.62-8.417 3.45-16.856 12.56-18.82 8.405-1.618 16.859 3.452 18.82 12.56 1.624 8.429-3.468 16.86-12.56 18.82zm-50 0c-8.433 1.623-16.86-3.468-18.82-12.56-1.63-8.468 3.499-16.867 12.56-18.82 8.377-1.612 16.854 3.427 18.82 12.56 1.624 8.429-3.468 16.86-12.56 18.82zm-59.25-.92c-13.004-5.146-13.169-24.329 0-29.54 6.063-2.529 12.935-1.035 17.43 3.46 12.132 12.148-1.136 32.859-17.43 26.08z"/></svg>